<svg width="165" height="46" viewBox="0 0 165 46" fill="none" xmlns="http://www.w3.org/2000/svg">
<path d="M40.4514 25.533C40.4514 17.9039 44.9916 12.8427 51.8764 12.8427C57.9796 12.8427 62.4082 16.2293 62.8176 21.7743H57.2725C56.9748 19.3181 55.1141 17.7551 52.0624 17.7551C48.2665 17.7551 46.0336 20.6206 46.0336 25.533C46.0336 30.5198 48.1549 33.3481 51.7647 33.3481C54.7791 33.3481 56.7887 31.4874 57.0493 28.5102H51.2065V24.0816H62.8176V38H58.6867L58.4634 34.5018C56.8632 36.8463 54.2953 38.2977 51.2437 38.2977C44.7683 38.2977 40.4514 33.1993 40.4514 25.533ZM66.9484 39.8607H69.3674C70.8932 39.8607 71.7492 39.377 72.2329 38.1489L72.6051 37.2185L65.7203 18.9459H71.4514L75.8056 32.1573L80.0481 18.9459H85.8164L78.8944 38.5954C77.3686 43.0612 75.2474 44.6243 70.5955 44.6243H66.9484V39.8607ZM100.74 27.2077C100.74 24.4538 99.4743 23.2629 97.4647 23.2629C95.5667 23.2629 94.1526 24.7887 94.1526 26.9472V38H88.682V18.9459H94.1526V21.6626C95.4923 19.5042 97.6135 18.3133 99.6232 18.3133C102.451 18.3133 104.684 19.8391 105.689 22.6302C106.917 19.8763 109.373 18.3133 111.681 18.3133C115.477 18.3133 118.268 21.0672 118.268 26.054V38H112.834V27.2077C112.834 24.4538 111.532 23.2629 109.522 23.2629C107.624 23.2629 106.21 24.7887 106.21 26.9472V38H100.74V27.2077ZM121.468 28.3985C121.468 22.3325 125.339 18.3133 131.181 18.3133C136.95 18.3133 140.857 22.3325 140.857 28.3985C140.857 34.5018 136.95 38.5582 131.181 38.5582C125.339 38.5582 121.468 34.5018 121.468 28.3985ZM135.275 28.3985C135.275 24.9748 133.749 23.0024 131.181 23.0024C128.576 23.0024 127.013 24.9748 127.013 28.3985C127.013 31.8595 128.576 33.8691 131.181 33.8691C133.749 33.8691 135.275 31.8595 135.275 28.3985ZM156.897 27.2077C156.897 24.4538 155.446 23.2629 153.213 23.2629C151.129 23.2629 149.566 24.7887 149.566 26.9472V38H144.058V18.9459H149.566V21.7743C150.943 19.5786 153.25 18.3133 155.408 18.3133C159.465 18.3133 162.368 21.0672 162.368 26.054V38H156.897V27.2077Z" fill="white"/>
<path fill-rule="evenodd" clip-rule="evenodd" d="M30.011 14.5978C29.6537 14.5978 29.3857 14.3298 29.3857 13.9949V10.5115C29.3857 10.1765 29.6537 9.88623 30.011 9.88623C30.3459 9.88623 30.6139 10.1765 30.6139 10.5115V13.9949C30.6139 14.3298 30.3459 14.5978 30.011 14.5978Z" fill="#D2F509"/>
<path fill-rule="evenodd" clip-rule="evenodd" d="M33.7862 14.5977C33.6299 14.5977 33.4736 14.553 33.362 14.419C33.1163 14.1957 33.1163 13.7938 33.362 13.5482L35.8182 11.0919C36.0638 10.8463 36.4434 10.8463 36.689 11.0919C36.9347 11.3376 36.9347 11.7172 36.689 11.9628L34.2328 14.419C34.1212 14.553 33.9425 14.5977 33.7862 14.5977Z" fill="#D2F509"/>
<path fill-rule="evenodd" clip-rule="evenodd" d="M26.216 14.5982C26.0597 14.5982 25.9033 14.5535 25.7694 14.4195L23.3131 11.9633C23.0675 11.7176 23.0675 11.338 23.3131 11.0924C23.5587 10.8468 23.9384 10.8468 24.184 11.0924L26.6402 13.5487C26.8858 13.7943 26.8858 14.1962 26.6402 14.4195C26.5286 14.5535 26.3723 14.5982 26.216 14.5982Z" fill="#D2F509"/>
<path fill-rule="evenodd" clip-rule="evenodd" d="M5.63839 9.37459C5.31622 9.57431 5.08236 9.88938 4.98447 10.2556L0.135043 28.3976C-0.132911 29.4471 -0.0435927 31.5014 0.782599 32.3276C3.93106 35.4314 8.196 37.3964 12.4163 38.5352C13.5328 38.8255 14.6939 38.9372 15.855 38.9148C17.954 38.8925 20.0976 38.4906 22.1073 37.91C23.0273 37.6533 24.0088 37.335 24.8947 36.9553C24.9717 36.9222 25.051 36.8896 25.1348 36.8905C25.1507 36.8907 25.1667 36.8917 25.1826 36.8936C25.264 36.9032 25.3333 36.9523 25.4014 36.9981C25.6238 37.1476 25.8752 37.2804 26.1266 37.3964C26.8188 37.7537 27.5557 38.0886 28.2926 38.3789C30.5925 39.2721 33.0711 39.808 35.5496 39.8527C35.6567 39.8661 35.7605 39.8105 35.8088 39.714L35.8176 39.6964C36.9787 37.6644 37.6486 35.1188 37.9389 32.7965C38.2515 30.2287 38.2069 27.0802 37.2913 24.6239C36.1972 21.7434 33.6516 19.7561 30.5478 19.5551C27.377 19.3319 24.6305 21.0736 23.0228 23.7531L23.0188 23.7598C22.9424 23.8871 22.9625 24.05 23.0674 24.155C24.0499 25.0705 24.8092 26.2093 25.3674 27.4151C25.4155 27.5114 25.406 27.6424 25.3388 27.7333C25.2853 27.8055 25.1893 27.8394 25.0994 27.8394C24.9878 27.8394 24.8761 27.7724 24.8092 27.6608C23.4471 24.7579 20.8792 22.4803 17.5521 22.391C14.3366 22.3017 11.6571 24.3113 10.161 27.0802C10.094 27.2365 9.91537 27.2812 9.75906 27.2142C9.60276 27.1248 9.53577 26.9462 9.62509 26.7899C10.2057 25.7404 10.9425 24.7579 11.8357 23.9541C11.9072 23.8826 11.9474 23.7856 11.9474 23.6845V14.8797C11.9474 14.6078 11.8729 14.3411 11.7321 14.1085L10.4736 12.0301C10.456 11.9948 10.4453 11.9595 10.4402 11.9242C10.4247 11.8166 10.4692 11.7034 10.557 11.6395C10.5934 11.613 10.634 11.5937 10.6746 11.5835L13.6221 10.8466C13.7337 10.8243 13.8454 10.8466 13.9124 10.9136L14.9459 11.9162C15.5848 12.5359 16.621 12.4603 17.1633 11.7545L19.4295 8.80457C19.8479 8.26005 19.8396 7.50009 19.4095 6.96484L16.9483 3.90204C16.4771 3.31566 15.6425 3.17285 15.0031 3.5692L5.63839 9.37459ZM29.8333 29.8044C29.6993 29.7374 29.6323 29.5364 29.7216 29.4025C29.811 29.2462 29.9896 29.2015 30.1459 29.2908C31.9769 30.3403 33.9196 31.1665 35.9516 31.7917C36.1079 31.8364 36.1972 31.9927 36.1525 32.1713C36.1079 32.3053 35.9962 32.3723 35.8623 32.3723C35.803 32.3723 35.744 32.3643 35.687 32.348C33.6414 31.7664 31.6831 30.8614 29.8333 29.8044ZM7.3698 31.3898C10.2636 33.0687 13.5508 34.3104 16.8855 34.7692C16.9576 34.7792 17.0314 34.7898 17.0941 34.8269C17.2023 34.8908 17.2791 35.0025 17.2618 35.1411C17.2394 35.2974 17.1055 35.4091 16.9492 35.4091H16.9268C13.4658 34.9625 10.0717 33.6451 7.05719 31.9034C6.90089 31.8364 6.85623 31.6354 6.94554 31.5014C7.03486 31.3451 7.2135 31.3005 7.3698 31.3898Z" fill="#D2F509"/>
</svg>
